<?xml version="1.0" encoding="UTF-8" standalone="no"?>
<!DOCTYPE svg PUBLIC "-//W3C//DTD SVG 1.1//EN" "http://www.w3.org/Graphics/SVG/1.1/DTD/svg11.dtd">
<svg width="100%" height="100%" viewBox="0 0 371 307" version="1.1" xmlns="http://www.w3.org/2000/svg" xmlns:xlink="http://www.w3.org/1999/xlink" xml:space="preserve" xmlns:serif="http://www.serif.com/" style="fill-rule:evenodd;clip-rule:evenodd;stroke-linejoin:round;stroke-miterlimit:2;">
    <g transform="matrix(1,0,0,1,-225.781,-172.073)">
        <g transform="matrix(1,0,0,1,152,107)">
            <g transform="matrix(1,0,0,1,-82,1)">
                <path d="M318.5,74.885L304.5,85.625L304.236,118.38C304.025,144.561 304.226,150.984 305.236,150.38C305.931,149.965 312.688,145.136 320.25,139.648L334,129.671L334,96.835C334,78.776 333.663,64.033 333.25,64.073C332.837,64.113 326.2,68.978 318.5,74.885M343.753,206.75L343.5,349.5L334,350.11L334,249.055C334,193.475 333.734,148 333.409,148C332.793,148 321.341,155.753 319.375,157.5C318.756,158.05 315.061,160.75 311.164,163.5L304.077,168.5L304.039,261.25C304.001,351.258 303.945,354 302.125,354C301.094,354 298.844,354.281 297.125,354.625L294,355.25L294,324.042C294,305.747 293.624,292.971 293.091,293.167C292.138,293.516 285.78,298.848 275.571,307.859L269.5,313.217L269,335.359L268.5,357.5L264.25,357.807L260,358.115L260,295.557C260,261.151 259.654,233 259.232,233C258.81,233 253.866,237.614 248.245,243.254L238.026,253.508L237.983,307.254C237.959,336.814 237.737,361 237.49,361C236.685,361 163.715,368.919 156,369.843C151.365,370.399 220.708,370.749 337.5,370.759L526.5,370.776L490,366.458C469.925,364.083 450.8,361.771 447.5,361.32L441.5,360.5L441.026,252.5L418.5,231.226L418.243,294.737L417.985,358.247L414.868,357.624C413.153,357.281 411.131,357 410.375,357C409.219,357 409,343.631 409,273.167L409,189.334L383.5,167.99L382.99,354.248L379.87,353.624C378.154,353.281 376.131,353 375.375,353C374.215,353 373.997,331.984 373.982,218.75L373.965,93.5L369.233,90.3C366.63,88.54 360.089,83.927 354.697,80.05C349.304,76.172 344.693,73 344.45,73C344.207,73 343.893,128.237 343.753,206.75M290.472,134.763C288.807,136.268 284.082,140.415 279.972,143.977C275.863,147.54 271.712,151.321 270.75,152.38C269.117,154.177 269,159.13 269,226.212C269,283.46 269.255,297.969 270.25,297.386C271.307,296.767 284.659,285.165 288.794,281.272C289.511,280.597 290.979,279.428 292.056,278.674C293.972,277.331 294.008,275.793 293.757,204.664L293.5,132.026L290.472,134.763" style="fill:rgb(235,244,255);"/>
            </g>
        </g>
        <g transform="matrix(1,0,0,1,152,107)">
            <g transform="matrix(1,0,0,1,-234,-106)">
                <path d="M307.949,476.85L307.934,476.937C308.445,477.008 310.243,477.075 313.266,477.138L446,461.699L446,431.042C446,412.747 445.624,399.971 445.091,400.167C444.138,400.516 437.78,405.848 427.571,414.859L421.5,420.217L420.5,464.5L416.25,464.807L412,465.115L412,402.557C412,368.151 411.654,340 411.232,340C410.81,340 405.866,344.614 400.245,350.254L390.026,360.508L389.983,414.254C389.959,443.814 389.737,468 389.49,468C388.685,468 315.715,475.919 308,476.843L307.949,476.85ZM454.744,460.682L486,457.047L486,356.055C486,300.475 485.734,255 485.409,255C484.793,255 473.341,262.753 471.375,264.5C470.756,265.05 467.061,267.75 463.164,270.5L456.077,275.5L456.039,368.25C456.006,446.656 455.959,458.843 454.744,460.682ZM496.374,172.887L496.367,173.24C496.257,179.407 496.226,185.575 496.183,191.742C496.112,202.189 496.061,212.636 496.016,223.083C495.885,253.305 495.812,283.528 495.753,313.75L495.501,456.061L527.268,459.935C526.201,458.584 525.997,435.417 525.982,325.75L525.964,191.5L521.232,188.3C520.47,187.784 519.369,187.024 518.059,186.109L496.374,172.887ZM442.472,241.763C440.807,243.268 436.082,247.415 431.972,250.977C427.863,254.54 423.712,258.321 422.75,259.38C421.117,261.177 421,266.13 421,333.212C421,390.46 421.255,404.969 422.25,404.386C423.307,403.767 436.659,392.165 440.794,388.272C441.511,387.597 442.979,386.428 444.056,385.674C445.972,384.331 446.008,382.793 445.757,311.664L445.5,239.026L442.472,241.763ZM470.5,181.885L456.5,192.625L456.236,225.38C456.025,251.561 456.226,257.984 457.236,257.38C457.931,256.965 464.688,252.136 472.25,246.648L486,236.671L486,203.835C486,185.776 485.663,171.033 485.25,171.073C484.837,171.113 478.2,175.978 470.5,181.885Z" style="fill:rgb(235,244,255);"/>
            </g>
        </g>
        <g transform="matrix(1,0,0,1,152,107)">
            <g transform="matrix(1,0,0,1,-234,-106)">
                <path d="M389.562,467.319L412,464.991L412,402.557C412,368.151 411.654,340 411.232,340C410.81,340 405.866,344.614 400.245,350.254L390.026,360.508L389.983,414.254C389.961,440.914 389.779,463.203 389.562,467.319ZM420.509,464.108L446,461.462L446,431.042C446,412.747 445.624,399.971 445.091,400.167C444.138,400.516 437.78,405.848 427.571,414.859L421.5,420.217L420.509,464.108ZM454.822,460.547L464.907,459.5L486,457.047L486,356.055C486,300.475 485.734,255 485.409,255C484.793,255 473.341,262.753 471.375,264.5C470.756,265.05 467.061,267.75 463.164,270.5L456.077,275.5L456.039,368.25C456.007,444.947 455.961,458.28 454.822,460.547ZM442.472,241.763C440.807,243.268 436.082,247.415 431.972,250.977C427.863,254.54 423.712,258.321 422.75,259.38C421.117,261.177 421,266.13 421,333.212C421,390.46 421.255,404.969 422.25,404.386C423.307,403.767 436.659,392.165 440.794,388.272C441.511,387.597 442.979,386.428 444.056,385.674C445.972,384.331 446.008,382.793 445.757,311.664L445.5,239.026L442.472,241.763ZM470.5,181.885L456.5,192.625L456.236,225.38C456.025,251.561 456.226,257.984 457.236,257.38C457.931,256.965 464.688,252.136 472.25,246.648L486,236.671L486,203.835C486,185.776 485.663,171.033 485.25,171.073C484.837,171.113 478.2,175.978 470.5,181.885Z" style="fill:rgb(235,244,255);"/>
            </g>
        </g>
    </g>
</svg>
